<?xml version="1.0" encoding="UTF-8"?>
<!DOCTYPE svg PUBLIC "-//W3C//DTD SVG 1.1//EN" "http://www.w3.org/Graphics/SVG/1.1/DTD/svg11.dtd">
<svg xmlns="http://www.w3.org/2000/svg" version="1.1" width="64px" height="64px">
	<g fill="#C75C5C">
		<circle cx="32" cy="32" r="32"/>
	</g>
	<g fill="#231F20" opacity="0.2">
		<path d="M28.125,58.062c0,0-16.062-2.377-16.062-16.062s21.003-14.991,16.355-31.969 c0,0,15.726,4.921,11.887,20.245c0,0,2.079-1.328,3.671-3.913c0,0,7.963,6.151,7.963,15.511S40.9,58.12,35.671,58.056    c0,0,5.642-7.618,0.509-12.529C28.894,38.555,32,34.078,32,34.078S14.246,42.763,28.125,58.062z"/>
	</g>
	<g fill="#F5CF87">
		<path d="M28.125,56.062c0,0-16.062-2.377-16.062-16.062S33.065,25.009,28.417,8.031 c0,0,15.726,4.921,11.887,20.245c0,0,2.079-1.328,3.671-3.913c0,0,7.963,6.151,7.963,15.511S40.9,56.12,35.671,56.056 c0,0,5.642-7.618,0.509-12.529C28.894,36.555,32,32.078,32,32.078S14.246,40.763,28.125,56.062z"/>
	</g>
</svg>
